# xmcd
#
# Track frame offsets: 
#        150
#        14231
#        28376
#        52171
#        70044
#        78428
#        96445
#        109957
#        126450
#        144824
#
# Disc length: 2058 seconds
#
# Revision: 0
# Processed by: cddbd v1.5.2PL0 Copyright (c) Steve Scherf et al.
# Submitted via: ExactAudioCopy v1.3
#
DISCID=9608080a
DTITLE=The Larry Dougher Band - Let Me Stay
DYEAR=2006
DGENRE=Modern Electric Blues
TTITLE0=Willis
TTITLE1=Borrowed Time
TTITLE2=Better off (Without You)
TTITLE3=Let me Stay
TTITLE4=I Wanna Know
TTITLE5=Tired and Troubled
TTITLE6=I'll Always Be
TTITLE7=Make me Love Again
TTITLE8=Butterscotch
TTITLE9=I Wanna Know (Rhumba)
EXTD=
EXTT0=
EXTT1=
EXTT2=
EXTT3=
EXTT4=
EXTT5=
EXTT6=
EXTT7=
EXTT8=
EXTT9=
PLAYORDER=
